Genre:Action
Language:English
IMDb:http://www.imdb.com/title/tt1941684/
Source:DVD Thanks!

Format : AVI
Format/Info : Audio Video Interleave
File size : 1.38 GiB
Duration : 1h 40mn
Overall bit rate : 1 955 Kbps

Video
ID : 0
Format : MPEG-4 Visual
Format profile : Advanced Simple@L5
Format settings, BVOP : Yes
Format settings, QPel : No
Format settings, GMC : No warppoints
Format settings, Matrix : Default (H.263)
Codec ID : XVID
Codec ID/Hint : XviD
Duration : 1h 40mn
Bit rate : 1 498 Kbps
Width : 640 pixels
Height : 360 pixels
Display aspect ratio : 16:9
Frame rate : 23.976 fps
Color space : YUV
Chroma subsampling : 4:2:0
Bit depth : 8 bits
Scan type : Progressive
Bits/(Pixel*Frame) : 0.271
Stream size : 1.05 GiB (77%)
Writing library : XviD 1.2.1 (UTC 2008-12-04)

Audio
ID : 1
Format : AC-3
Format/Info : Audio Coding 3
Mode extension : CM (complete main)
Codec ID : 2000
Duration : 1h 40mn
Bit rate mode : Constant
Bit rate : 448 Kbps
Channel(s) : 6 channels
Channel positions : Front: L C R, Side: L R, LFE
Sampling rate : 48.0 KHz
Bit depth : 16 bits
Stream size : 323 MiB (23%)
Alignment : Aligned on interleaves
Interleave, duration : 42 ms (1.00 video frame)
Interleave, preload duration : 512 ms


Plot:
With a fresh start, trying to escape an abusive past, Vance and his mother have just moved to a new city..

Screens
 
http://img32.imageshack.us/img32/8470/vlcsnap00001v.png
 
http://img249.imageshack.us/img249/3867/vlcsnap00003vi.png
 
http://img210.imageshack.us/img210/3973/vlcsnap00002kj.png